<?xml version="1.0" encoding="UTF-8" standalone="no"?>
<svg
   xmlns:dc="http://purl.org/dc/elements/1.1/"
   xmlns:cc="http://creativecommons.org/ns#"
   xmlns:rdf="http://www.w3.org/1999/02/22-rdf-syntax-ns#"
   xmlns:svg="http://www.w3.org/2000/svg"
   xmlns="http://www.w3.org/2000/svg"
   xmlns:xlink="http://www.w3.org/1999/xlink"
   xmlns:sodipodi="http://sodipodi.sourceforge.net/DTD/sodipodi-0.dtd"
   xmlns:inkscape="http://www.inkscape.org/namespaces/inkscape"
   width="188"
   height="37"
   viewBox="0 0 188 37"
   fill="none"
   version="1.1"
   id="svg937"
   sodipodi:docname="Money Bar.svg"
   inkscape:version="0.92.4 (5da689c313, 2019-01-14)">
  <metadata
     id="metadata941">
    <rdf:RDF>
      <cc:Work
         rdf:about="">
        <dc:format>image/svg+xml</dc:format>
        <dc:type
           rdf:resource="http://purl.org/dc/dcmitype/StillImage" />
      </cc:Work>
    </rdf:RDF>
  </metadata>
  <sodipodi:namedview
     pagecolor="#ffffff"
     bordercolor="#666666"
     borderopacity="1"
     objecttolerance="10"
     gridtolerance="10"
     guidetolerance="10"
     inkscape:pageopacity="0"
     inkscape:pageshadow="2"
     inkscape:window-width="1920"
     inkscape:window-height="1015"
     id="namedview939"
     showgrid="false"
     inkscape:zoom="7.2393617"
     inkscape:cx="94.552535"
     inkscape:cy="18.5"
     inkscape:window-x="0"
     inkscape:window-y="0"
     inkscape:window-maximized="1"
     inkscape:current-layer="g910" />
  <g
     clip-path="url(#clip0)"
     id="g910">
    <g
       id="g902"
       style="filter:url(#filter0_d)">
      <path
         style="fill:url(#linearGradient4670)"
         d="m 14,14 c 42.833333,0 85.666667,0 148.5,0 5.05885,-0.105599 4.08098,8.083081 -0.79311,7 C 99.137925,21 56.568962,21 14,21 c 0,-2.333333 0,-4.666667 0,-7 z"
         id="path898"
         inkscape:connector-curvature="0" />
      <path
         d="m 14,13 h -1 v 1 7 1 h 1 168.5 c 2.485,0 4.5,-2.0147 4.5,-4.5 0,-2.4853 -2.015,-4.5 -4.5,-4.5 z"
         id="path900"
         inkscape:connector-curvature="0"
         style="stroke:#ffffff;stroke-width:2" />
    </g>
    <path
       d="M 9.49994,12.3469 5.24994,5 h 7.96876 z"
       id="path904"
       inkscape:connector-curvature="0"
       style="fill:#ffffff;stroke:#ffffff;stroke-width:3;stroke-linejoin:round" />
    <path
       d="M 9.5,25 C 14.1944,25 18,21.3452 18,16.8367 18,12.3283 14.1944,8.67347 9.5,8.67347 4.80558,8.67347 1,12.3283 1,16.8367 1,21.3452 4.80558,25 9.5,25 Z"
       id="path906"
       inkscape:connector-curvature="0"
       style="fill:#ffffff" />
    <path
       d="m 10.3775,17.6319 c 0,-0.2396 -0.0846,-0.4414 -0.2539,-0.6054 C 9.95695,16.8624 9.6744,16.714 9.27596,16.5812 8.72127,16.4119 8.31633,16.1918 8.06112,15.921 7.80851,15.6476 7.68221,15.3012 7.68221,14.8819 c 0,-0.4271 0.1237,-0.7773 0.37109,-1.0507 0.25,-0.2735 0.59245,-0.4362 1.02735,-0.4883 v -0.8555 h 0.58203 v 0.8594 c 0.43752,0.0599 0.77732,0.2435 1.01952,0.5508 0.2448,0.3072 0.3672,0.7278 0.3672,1.2617 h -0.7188 c 0,-0.3672 -0.0872,-0.6589 -0.2617,-0.875 -0.17445,-0.2162 -0.41013,-0.3242 -0.707,-0.3242 -0.3099,0 -0.54688,0.0807 -0.71094,0.2421 -0.16406,0.1589 -0.24609,0.3816 -0.24609,0.668 0,0.2656 0.08593,0.4779 0.25781,0.6367 0.17448,0.1563 0.45963,0.2995 0.85547,0.4297 0.39844,0.1276 0.70835,0.2696 0.92965,0.4258 0.224,0.1536 0.3881,0.3333 0.4922,0.5391 0.1068,0.2057 0.1602,0.4466 0.1602,0.7226 0,0.4401 -0.1328,0.7943 -0.3985,1.0625 -0.263,0.2682 -0.6328,0.4271 -1.10933,0.4766 v 0.7461 H 9.01424 V 19.1632 C 8.52987,19.1189 8.14966,18.947 7.87362,18.6476 7.60018,18.3455 7.46346,17.9366 7.46346,17.421 h 0.72266 c 0,0.362 0.09505,0.6406 0.28515,0.8359 0.19011,0.1953 0.45964,0.293 0.8086,0.293 0.34114,0 0.60937,-0.082 0.80473,-0.2461 0.1953,-0.1641 0.2929,-0.388 0.2929,-0.6719 z"
       id="path908"
       inkscape:connector-curvature="0"
       style="fill:#343a40" />
  </g>
  <defs
     id="defs935">
    <filter
       id="filter0_d"
       x="8"
       y="12"
       width="184"
       height="19"
       filterUnits="userSpaceOnUse"
       color-interpolation-filters="sRGB">
      <feFlood
         flood-opacity="0"
         result="BackgroundImageFix"
         id="feFlood912" />
      <feColorMatrix
         in="SourceAlpha"
         type="matrix"
         values="0 0 0 0 0 0 0 0 0 0 0 0 0 0 0 0 0 0 127 0"
         id="feColorMatrix914" />
      <feOffset
         dy="4"
         id="feOffset916" />
      <feGaussianBlur
         stdDeviation="2"
         id="feGaussianBlur918" />
      <feColorMatrix
         type="matrix"
         values="0 0 0 0 0 0 0 0 0 0 0 0 0 0 0 0 0 0 0.25 0"
         id="feColorMatrix920" />
      <feBlend
         mode="normal"
         in2="BackgroundImageFix"
         result="effect1_dropShadow"
         id="feBlend922" />
      <feBlend
         mode="normal"
         in="SourceGraphic"
         in2="effect1_dropShadow"
         result="shape"
         id="feBlend924" />
    </filter>
    <linearGradient
       id="paint0_linear"
       x1="14"
       y1="21"
       x2="186"
       y2="21"
       gradientUnits="userSpaceOnUse">
      <stop
         stop-color="#3E8832"
         id="stop927" />
      <stop
         offset="1"
         stop-color="#2BC012"
         id="stop929" />
    </linearGradient>
    <clipPath
       id="clip0">
      <path
         d="M0 0H188V37H0V0Z"
         fill="white"
         id="path932" />
    </clipPath>
    <linearGradient
       inkscape:collect="always"
       xlink:href="#paint0_linear"
       id="linearGradient4670"
       gradientUnits="userSpaceOnUse"
       x1="14"
       y1="21"
       x2="186"
       y2="21" />
  </defs>
</svg>
